<?xml version="1.0" encoding="UTF-8"?>
<svg id="Layer_1" xmlns="http://www.w3.org/2000/svg" xmlns:xlink="http://www.w3.org/1999/xlink" version="1.1" viewBox="0 0 600 600">
  <!-- Generator: Adobe Illustrator 30.3.0, SVG Export Plug-In . SVG Version: 2.1.3 Build 182)  -->
  <defs>
    <style>
      .st0 {
        fill: url(#linear-gradient);
      }

      .st1 {
        fill: #fff;
      }
    </style>
    <linearGradient id="linear-gradient" x1="87.87" y1="87.87" x2="512.13" y2="512.13" gradientUnits="userSpaceOnUse">
      <stop offset="0" stop-color="#6209f8"/>
      <stop offset=".14" stop-color="#572bf9"/>
      <stop offset=".46" stop-color="#3b80fc"/>
      <stop offset=".48" stop-color="#3a87fd"/>
      <stop offset="1" stop-color="#27c2ff"/>
    </linearGradient>
  </defs>
  <circle class="st0" cx="300" cy="300" r="300"/>
  <path class="st1" d="M245.63,422.66l-9.21-52.04-44.71-28.32c-16.24-67.97,34.46-163.92,124.91-166.81,95.39-.71,131.36,61.26,133.1,110.96-23.88.91-131.73,4.67-131.73,4.67l9.03,44.53,5.16,27.21s80.63-2.37,140.86-4.48l20.81-173.29c-38.2-50.89-99.75-86.99-180.1-84.09-131.16,4.74-232.75,119.54-202.09,269.75l64.83,43.67,16.13,84.74,264.61-9.24,9.01-74.97-220.6,7.71Z"/>
</svg>